# xmcd CD database file
#
# Track frame offsets:
#	150
#	10200
#	31602
#	44665
#	58852
#	72140
#	84432
#	105020
#	117625
#	139922
#	151325
#	168712
#	189720
#	204482
#
# Disc length: 2992 seconds
#
# Revision: 0
# Processed by: cddbd v1.4PL0 Copyright (c) Steve Scherf et al.
# Submitted via: CDex 1.50beta10
#
DISCID=bd0bae0e
DTITLE=University of Idaho Jazz Choir I - The Big Choir Era (1993-1997)
DYEAR=1900
DGENRE=Jazz
TTITLE0=I Got Rhythm
TTITLE1=Just A Closer Walk With Thee
TTITLE2=The Four Winds
TTITLE3=Rock Music
TTITLE4=Til There Was You
TTITLE5=Mambo!
TTITLE6=Johnny One Note
TTITLE7=Michelle
TTITLE8=Begin The Beguine
TTITLE9=Pop Music
TTITLE10=Stardust
TTITLE11=Samba!
TTITLE12=The Stars And Stripes Forever
TTITLE13=When I Fall In Love
EXTD=
EXTT0=
EXTT1=
EXTT2=
EXTT3=
EXTT4=
EXTT5=
EXTT6=
EXTT7=
EXTT8=
EXTT9=
EXTT10=
EXTT11=
EXTT12=
EXTT13=
PLAYORDER=
